Simulation
nRows=40
nColumns=15
endheader
time  TH_x TH_y TH_z SC_y  SC_z  SC_x  AC_y  AC_z  AC_x  GH_y  GH_z  GH_yy  EL_x  PS_y
1.5  0.000000  0.000000  0.000000  -33.17044828702607  7.784598841315711  14.649021066604696  37.23851737794475  24.908341240789944  10.237315068330537  -0.7148454354926699  52.00174177617181  9.792277415928737  20.736450314976803  0.000000
1.53  0.000000  0.000000  0.000000  -34.77809058112229  8.795499203591923  14.752266653547531  37.429791659425824  19.60628893363854  7.652485167437974  1.6528750366607479  54.40307095695806  8.285193545666559  21.255914971571748  0.000000
1.56  0.000000  0.000000  0.000000  -36.00828647257131  8.198481085095324  15.064883410618464  39.86811871406304  19.303773743467413  5.405305848630778  1.7889884923430908  54.04863276835125  6.10233053804  21.532968165020556  0.000000
1.5899999999999999  0.000000  0.000000  0.000000  -36.060842451873484  8.48840364486534  15.786373770134228  39.69917402712458  17.51053878139321  6.197851672548758  1.0605136392211882  54.540619166534654  7.185630974615349  22.200922819400425  0.000000
1.6199999999999999  0.000000  0.000000  0.000000  -34.057593873207054  11.54526121414127  15.915209038200983  40.04231683826285  16.494390408568528  7.048616635012576  -3.247214628082499  52.81787911884731  9.082233165163656  21.33486031070963  0.000000
1.65  0.000000  0.000000  0.000000  -30.17629107884699  9.258279159484214  21.429702575989058  38.7495398749361  19.75056827907926  7.707772730452229  -9.318335627041824  49.37433463754311  12.780112483217763  21.1980991844102  0.000000
1.68  0.000000  0.000000  0.000000  -31.5896741591337  1.803514371926002  26.186616396726787  47.97958457006568  18.5154782569774  2.970254199115632  -13.112440029164286  53.638223302899824  12.12126804758782  21.18630605034323  0.000000
1.71  0.000000  0.000000  0.000000  -33.22386562074835  18.77158224294015  13.71684737440575  51.249371937153064  -2.387105693681955  8.725605443090252  -8.360041244732605  64.18443756963241  4.579443346811416  19.583317727433844  0.000000
1.74  0.000000  0.000000  0.000000  -30.292713379183535  46.47491690782345  0.6406264145147611  29.575533073644873  -34.668545206914416  25.606076227417915  2.611288678898476  66.14273414724188  3.980352236160213  22.74828937119566  0.000000
1.77  0.000000  0.000000  0.000000  -32.09761621021255  30.871238247802534  2.5346383011644837  20.710777196919537  -30.454543505451753  22.67715056360968  6.784143631854052  69.49832451820639  8.206555707635255  25.571615322609144  0.000000
1.7999999999999998  0.000000  0.000000  0.000000  -35.22052391536131  -0.9317009782696147  9.722057646884219  27.753694897241644  -10.778475475918226  13.363307725220661  4.943273722082423  79.1903839501899  14.693321048926833  24.937338497247364  0.000000
1.8299999999999998  0.000000  0.000000  0.000000  -34.872938565222526  -9.891176080107472  11.913234530012126  33.15135481007925  -8.74585302611844  12.08732583616321  1.9877681396905245  79.88683612314102  20.545868541570457  25.19119602549651  0.000000
1.8599999999999999  0.000000  0.000000  0.000000  -35.60059716347953  -11.874586952832267  9.575877859951374  36.05042377445675  -6.334709973132578  14.468351089986772  0.43527328961989914  75.62291866562252  23.931250902035952  27.22107394510961  0.000000
1.89  0.000000  0.000000  0.000000  -36.75319966672764  -12.039759329342441  7.657480094805785  36.509757345336226  -4.706487334232398  16.370074565646288  -0.32216331250750135  71.03194744667573  26.236144905179284  28.86214612848388  0.000000
1.92  0.000000  0.000000  0.000000  -36.74635655359173  -11.18915832356103  5.760877559627046  35.931214861938564  -4.544670731702977  17.465625275968847  -1.9530934636849513  68.36490135949799  26.7221878958371  28.96496335640267  0.000000
1.95  0.000000  0.000000  0.000000  -36.32496088866949  -11.193782052538154  4.279137687848962  34.99261372927647  -3.5071434390225145  18.23170785434613  -4.047030735269055  66.04764295739402  27.58456524779393  28.48265336325727  0.000000
1.98  0.000000  0.000000  0.000000  -36.006596314108315  -11.43180018899039  3.1432854436057807  35.13990555310406  -2.841399615662226  18.930383283111002  -6.401964312989597  64.50171713969276  28.031462941487845  27.831174860781186  0.000000
2.01  0.000000  0.000000  0.000000  -35.65124199432871  -11.225790125185794  2.5928490292843747  35.521563955289025  -3.110892738860229  19.9018799036161  -8.82505441205031  63.26626976648325  28.920273361897383  27.266561037454867  0.000000
2.04  0.000000  0.000000  0.000000  -34.972751490322985  -11.486381153603427  1.9716108023945105  35.35860128542781  -2.6329305143790123  20.12315422120631  -10.680641322325892  61.84986370198047  29.65596905354063  26.821361415630804  0.000000
2.07  0.000000  0.000000  0.000000  -34.428720300344935  -11.720106246782782  1.245481042476496  35.17401955551985  -2.2682696744253  20.537643067060486  -12.280738691121606  60.44346088807431  30.45857051474178  26.28974105359508  0.000000
2.1  0.000000  0.000000  0.000000  -34.03592947427256  -11.835283798912128  0.6568281881053168  35.2160426466254  -1.9990943658376634  20.9742811829363  -13.94424259024293  59.02372081663365  31.169600620124367  25.768257803482804  0.000000
2.13  0.000000  0.000000  0.000000  -33.702694664181  -11.947005532847173  0.20410500950880364  35.20561311232453  -1.8140804233045906  21.343811651446376  -15.515433607950486  57.68270066339076  32.01125117714446  25.23101310188975  0.000000
2.16  0.000000  0.000000  0.000000  -33.39949121593305  -12.068998738095567  -0.16762415995772403  35.19907391648414  -1.6156900998717751  21.569754818502208  -17.022725174859342  56.36047396153634  32.748285721497574  24.70331464149979  0.000000
2.19  0.000000  0.000000  0.000000  -33.201519174874896  -12.19811502867924  -0.47508452048155647  35.22158270240236  -1.469455995983593  21.816388818631673  -18.518788274992406  55.10950989778949  33.619221397514664  24.151311767379056  0.000000
2.2199999999999998  0.000000  0.000000  0.000000  -33.03261936101632  -12.319841088325036  -0.7216601263435837  35.265562352885745  -1.309839781813437  21.9716015698357  -20.02530165794602  53.8344703276174  34.524585805468206  23.628091081988188  0.000000
2.25  0.000000  0.000000  0.000000  -32.942353383675396  -12.443838345779012  -0.8203745826866192  35.302803446353025  -1.252490338360027  22.046189721821808  -21.550164935294696  52.590944881928834  35.681826361507134  23.09398345855119  0.000000
2.28  0.000000  0.000000  0.000000  -32.89605150661121  -12.546737693157475  -0.7677336817662693  35.359548397428796  -1.2509149152308374  21.970600424735558  -23.121135458739793  51.30791075630228  37.0235856118089  22.598570272490306  0.000000
2.31  0.000000  0.000000  0.000000  -32.916218396370695  -12.645819257953143  -0.5000723514005712  35.406782470755545  -1.3822571007962288  21.754215506712296  -24.77028536182869  50.05663007089153  38.725357286437706  22.113555528369133  0.000000
2.34  0.000000  0.000000  0.000000  -32.964994675027626  -12.73792754245385  -0.08951900630435151  35.47443155173935  -1.5681165767528855  21.397119906398586  -26.509572549748206  48.80600424889389  40.693316935199896  21.718604555202656  0.000000
2.37  0.000000  0.000000  0.000000  -33.05395491481433  -12.837201324957368  0.4611413516641167  35.53901102643009  -1.835640863405133  20.9578500948229  -28.391146027573924  47.623758508766606  43.03316045572248  21.41244676316559  0.000000
2.4  0.000000  0.000000  0.000000  -33.14285670259222  -12.952562038537492  1.0562902073973581  35.63548854788164  -2.1076159371809435  20.46125039074739  -30.37956455858086  46.488022382809525  45.58496428551969  21.251474972709982  0.000000
2.4299999999999997  0.000000  0.000000  0.000000  -33.25366935009948  -13.079254969806941  1.6357860886861175  35.726338165745325  -2.3580999033956167  20.002984211114505  -32.50883027967084  45.40010509477298  48.38958105376191  21.1805238446802  0.000000
2.46  0.000000  0.000000  0.000000  -33.35466034534357  -13.175959252243839  2.137471143995609  35.84654083541824  -2.5702745748554188  19.60378751760491  -34.69186717885506  44.316687357226485  51.201351224851315  21.177482960351462  0.000000
2.4899999999999998  0.000000  0.000000  0.000000  -33.43948255868871  -13.252359438693038  2.5070707767244103  35.88927055247592  -2.696620939526273  19.311676446038543  -36.903484856166095  43.28155740953136  54.07920556740622  21.19637850085788  0.000000
2.52  0.000000  0.000000  0.000000  -33.49758847712718  -13.17043433397499  2.735388675440536  35.92198346302195  -2.828110111084518  19.159855625377315  -38.99414346306507  42.34293864255715  56.866120298464296  21.322535498453718  0.000000
2.55  0.000000  0.000000  0.000000  -33.46859809640246  -13.104154255759644  2.851567276227926  35.87826082942297  -2.921093609837924  19.137265129219706  -40.788977704001674  41.737825123299906  59.57137910497873  21.51206865198379  0.000000
2.58  0.000000  0.000000  0.000000  -33.24454369967765  -13.016807676775883  2.7130805752094167  35.72120050148776  -2.8415327675996314  19.136646244502987  -41.84275265097276  41.48932002513788  62.219573615188615  22.253430594473635  0.000000
2.61  0.000000  0.000000  0.000000  -33.084545152413384  -13.049181547452077  2.255891438191718  35.80532714862384  -2.7120933504301465  19.705087308336225  -42.105954425227914  42.027663270229056  64.75342635525925  23.454055730435886  0.000000
2.6399999999999997  0.000000  0.000000  0.000000  -32.04692136643634  -14.003583514105436  1.2337044480332042  36.0557583762892  -2.0041331217542897  20.1109330988073  -41.205593824266344  43.488688696504404  66.89119330675196  24.404594775964668  0.000000
2.67  0.000000  0.000000  0.000000  -32.339463966191275  -14.182276563759052  0.15239752676894475  35.90774254390619  -1.5339196090026412  20.790347664122827  -40.55557226812555  44.5810979802348  69.96017327166875  27.091890861160234  0.000000
